<?xml version="1.0" encoding="UTF-8" standalone="no"?>
<svg width="90px" height="91px" viewBox="0 0 90 91" version="1.1" xmlns="http://www.w3.org/2000/svg" xmlns:xlink="http://www.w3.org/1999/xlink">
    <!-- Generator: Sketch 3.7.2 (28276) - http://www.bohemiancoding.com/sketch -->
    <title>Artboard</title>
    <desc>Created with Sketch.</desc>
    <defs>
        <polygon id="path-1" points="89.5264 90 0 90 0 0.471 89.5264 0.471"></polygon>
    </defs>
    <g id="Page-1" stroke="none" stroke-width="1" fill="none" fill-rule="evenodd">
        <g id="Artboard">
            <g id="Page-1">
                <g id="Group-3" transform="translate(0.000000, 0.529300)">
                    <mask id="mask-2" fill="white">
                        <use xlink:href="#path-1"></use>
                    </mask>
                    <g id="Clip-2"></g>
                    <path d="M89.5264,45.2363 C89.5264,69.9603 69.4874,90.0003 44.7634,90.0003 C20.0424,90.0003 -0.0006,69.9603 -0.0006,45.2363 C-0.0006,20.5133 20.0424,0.4703 44.7634,0.4703 C69.4874,0.4703 89.5264,20.5133 89.5264,45.2363" id="Fill-1" fill="#E9E9E9" mask="url(#mask-2)"></path>
                </g>
                <path d="M34.3721,25.7949 C34.3721,26.9949 33.3991,27.9699 32.1981,27.9699 C30.9961,27.9699 30.0221,26.9949 30.0221,25.7949 L30.0221,19.6229 C30.0221,18.4219 30.9961,17.4469 32.1981,17.4469 C33.3991,17.4469 34.3721,18.4219 34.3721,19.6229 L34.3721,25.7949 Z" id="Fill-4" fill="#A8A8A8"></path>
                <path d="M28.4541,25.7949 C28.4541,26.9949 27.4811,27.9699 26.2791,27.9699 C25.0791,27.9699 24.1051,26.9949 24.1051,25.7949 L24.1051,19.6229 C24.1051,18.4219 25.0791,17.4469 26.2791,17.4469 C27.4811,17.4469 28.4541,18.4219 28.4541,19.6229 L28.4541,25.7949 Z" id="Fill-6" fill="#ADADAD"></path>
                <path d="M71.1104,50.7598 C71.1104,53.6658 68.7544,56.0228 65.8464,56.0228 L23.6784,56.0228 C20.7724,56.0228 18.4174,53.6658 18.4174,50.7598 L18.4174,26.5388 C18.4174,23.6328 20.7724,21.2758 23.6784,21.2758 L65.8464,21.2758 C68.7544,21.2758 71.1104,23.6328 71.1104,26.5388 L71.1104,50.7598 Z" id="Fill-8" fill="#AAA9A9"></path>
                <path d="M71.1104,35.5566 L71.1104,26.5386 C71.1104,23.6326 68.7544,21.2756 65.8464,21.2756 L23.6784,21.2756 C20.7724,21.2756 18.4174,23.6326 18.4174,26.5386 L18.4174,35.5566 L71.1104,35.5566 Z" id="Fill-10" fill="#C6C5C5"></path>
                <path d="M57.8633,38.6494 C57.8633,45.8844 51.9973,51.7494 44.7623,51.7494 C37.5273,51.7494 31.6623,45.8844 31.6623,38.6494 C31.6623,31.4134 37.5273,25.5474 44.7623,25.5474 C51.9973,25.5474 57.8633,31.4134 57.8633,38.6494" id="Fill-12" fill="#EFEFEF"></path>
                <path d="M54.9697,38.6494 C54.9697,44.2874 50.4007,48.8564 44.7627,48.8564 C39.1257,48.8564 34.5547,44.2874 34.5547,38.6494 C34.5547,33.0124 39.1257,28.4404 44.7627,28.4404 C50.4007,28.4404 54.9697,33.0124 54.9697,38.6494" id="Fill-14" fill="#CECECE"></path>
                <path d="M68.1006,27.0586 C68.1006,28.1216 67.2396,28.9796 66.1786,28.9796 L59.7866,28.9796 C58.7236,28.9796 57.8636,28.1216 57.8636,27.0586 C57.8636,25.9956 58.7236,25.1366 59.7866,25.1366 L66.1786,25.1366 C67.2396,25.1366 68.1006,25.9956 68.1006,27.0586" id="Fill-16" fill="#E5E5E4"></path>
                <path d="M30.0889,27.1592 C30.0889,27.6062 29.7269,27.9702 29.2799,27.9702 L22.9059,27.9702 C22.4599,27.9702 22.0979,27.6062 22.0979,27.1592 C22.0979,26.7122 22.4599,26.3492 22.9059,26.3492 L29.2799,26.3492 C29.7269,26.3492 30.0889,26.7122 30.0889,27.1592" id="Fill-18" fill="#E5E5E4"></path>
                <path d="M17.5625,64.4727 C17.3965,64.6097 17.3145,64.7897 17.3145,65.0147 C17.3145,65.2397 17.4155,65.4177 17.6175,65.5497 C17.8205,65.6827 18.2885,65.8387 19.0205,66.0197 C19.7535,66.2007 20.3225,66.4707 20.7275,66.8307 C21.1325,67.1927 21.3345,67.7187 21.3345,68.4107 C21.3345,69.1037 21.0755,69.6647 20.5565,70.0957 C20.0375,70.5267 19.3535,70.7417 18.5065,70.7417 C17.2855,70.7417 16.1835,70.2887 15.2045,69.3827 L16.2315,68.1237 C17.0635,68.8527 17.8335,69.2177 18.5405,69.2177 C18.8575,69.2177 19.1055,69.1497 19.2855,69.0127 C19.4665,68.8767 19.5565,68.6927 19.5565,68.4607 C19.5565,68.2287 19.4605,68.0447 19.2695,67.9087 C19.0785,67.7727 18.6985,67.6337 18.1305,67.4937 C17.2325,67.2807 16.5765,67.0027 16.1605,66.6607 C15.7445,66.3177 15.5355,65.7807 15.5355,65.0477 C15.5355,64.3147 15.7985,63.7497 16.3265,63.3517 C16.8515,62.9537 17.5095,62.7557 18.2965,62.7557 C18.8125,62.7557 19.3285,62.8437 19.8435,63.0207 C20.3595,63.1977 20.8085,63.4477 21.1915,63.7717 L20.3185,65.0317 C19.6485,64.5227 18.9565,64.2687 18.2425,64.2687 C17.9555,64.2687 17.7285,64.3367 17.5625,64.4727" id="Fill-20" fill="#989898"></path>
                <polygon id="Fill-22" fill="#989898" points="28.4814 62.9326 28.4814 64.4676 24.6374 64.4676 24.6374 66.0586 28.0944 66.0586 28.0944 67.5276 24.6374 67.5276 24.6374 69.1286 28.6034 69.1286 28.6034 70.6536 22.9144 70.6536 22.9144 62.9326"></polygon>
                <polygon id="Fill-24" fill="#989898" points="37.1641 65.793 35.0761 70.013 34.0491 70.013 31.9731 65.793 31.9731 70.653 30.2491 70.653 30.2491 62.933 32.5801 62.933 34.5681 67.174 36.5661 62.933 38.8871 62.933 38.8871 70.653 37.1641 70.653"></polygon>
                <polygon id="Fill-26" fill="#989898" points="49.2256 62.9326 49.2256 64.4456 45.6466 64.4456 45.6466 66.1136 49.0486 66.1136 49.0486 67.6266 45.6466 67.6266 45.6466 70.6536 43.9236 70.6536 43.9236 62.9326"></polygon>
                <path d="M56.7031,66.749 C56.7031,66.061 56.4821,65.473 56.0411,64.986 C55.5991,64.501 55.0571,64.258 54.4121,64.258 C53.7671,64.258 53.2241,64.501 52.7831,64.986 C52.3411,65.473 52.1191,66.061 52.1191,66.749 C52.1191,67.437 52.3411,68.022 52.7831,68.505 C53.2241,68.987 53.7671,69.228 54.4121,69.228 C55.0571,69.228 55.5991,68.987 56.0411,68.505 C56.4821,68.022 56.7031,67.437 56.7031,66.749 M57.2891,69.587 C56.5091,70.35 55.5471,70.73 54.4061,70.73 C53.2651,70.73 52.3041,70.35 51.5231,69.587 C50.7421,68.825 50.3521,67.877 50.3521,66.743 C50.3521,65.609 50.7421,64.661 51.5231,63.898 C52.3041,63.137 53.2651,62.756 54.4061,62.756 C55.5471,62.756 56.5091,63.137 57.2891,63.898 C58.0701,64.661 58.4601,65.609 58.4601,66.743 C58.4601,67.877 58.0701,68.825 57.2891,69.587" id="Fill-28" fill="#989898"></path>
                <polygon id="Fill-30" fill="#989898" points="63.0879 64.4238 63.0879 70.6528 61.3649 70.6528 61.3649 64.4238 59.1779 64.4238 59.1779 62.9328 65.2759 62.9328 65.2759 64.4238"></polygon>
                <path d="M72.3438,66.749 C72.3438,66.061 72.1228,65.473 71.6818,64.986 C71.2398,64.501 70.6978,64.258 70.0528,64.258 C69.4078,64.258 68.8648,64.501 68.4238,64.986 C67.9818,65.473 67.7598,66.061 67.7598,66.749 C67.7598,67.437 67.9818,68.022 68.4238,68.505 C68.8648,68.987 69.4078,69.228 70.0528,69.228 C70.6978,69.228 71.2398,68.987 71.6818,68.505 C72.1228,68.022 72.3438,67.437 72.3438,66.749 M72.9298,69.587 C72.1498,70.35 71.1878,70.73 70.0468,70.73 C68.9058,70.73 67.9448,70.35 67.1638,69.587 C66.3828,68.825 65.9928,67.877 65.9928,66.743 C65.9928,65.609 66.3828,64.661 67.1638,63.898 C67.9448,63.137 68.9058,62.756 70.0468,62.756 C71.1878,62.756 72.1498,63.137 72.9298,63.898 C73.7108,64.661 74.1008,65.609 74.1008,66.743 C74.1008,67.877 73.7108,68.825 72.9298,69.587" id="Fill-32" fill="#989898"></path>
            </g>
        </g>
    </g>
</svg>